<?xml version="1.0"?>
<svg width="2212" height="2250" xmlns="http://www.w3.org/2000/svg" xmlns:svg="http://www.w3.org/2000/svg" version="1.1">
 <g class="layer">
  <title>Layer 1</title>
  <path d="m1105.06,37.81c1.12,0 1.12,0 2.26,0c24.28,0.01 48.46,0.37 72.68,2.19c0.87,0.06 1.73,0.12 2.63,0.19c89.65,6.52 178.07,23.52 382.37,99.81c1.18,0.55 2.36,1.11 3.58,1.69c15.14,7.15 30.04,14.63 44.68,22.79c2.89,1.6 5.81,3.17 8.73,4.73c12.9,6.9 25.55,14.1 38.01,21.79c0.92,0.57 1.85,1.14 2.81,1.72c33.59,20.66 66.1,43.01 97.19,67.28c0.57,0.44 1.14,0.89 1.73,1.34c10.66,8.31 21.14,16.81 31.43,25.58c3.39,2.87 6.81,5.68 10.28,8.45c5.69,4.63 11.01,9.62 16.35,14.64c2.34,2.19 4.71,4.34 7.15,6.43c13.47,11.67 26.02,24.36 38.6,36.97c2.48,2.49 4.96,4.97 7.45,7.45c2.41,2.4 4.82,4.81 7.23,7.22c1.32,1.32 1.32,1.32 2.66,2.66c4.36,4.38 8.6,8.82 12.62,13.52c2.53,2.93 5.21,5.73 7.87,8.55c4.73,5.04 9.2,10.21 13.52,15.61c2.13,2.6 4.34,5.09 6.61,7.58c4.7,5.17 9.1,10.56 13.5,16c1.03,1.26 2.07,2.53 3.1,3.79c6.27,7.67 12.44,15.39 18.42,23.28c1.73,2.25 3.46,4.49 5.2,6.74c7.73,10.02 15.16,20.17 22.22,30.7c2.2,3.28 4.51,6.48 6.85,9.67c4.72,6.45 9.1,13.12 13.46,19.82c0.84,1.29 1.69,2.59 2.53,3.89c2.41,3.7 4.82,7.4 7.22,11.11c0.88,1.36 0.88,1.36 1.78,2.75c47.58,73.71 85.99,153.57 191.97,607.81c0.09,1.36 0.09,1.36 0.18,2.74c0.4,6.23 0.75,12.46 1.07,18.7c0.05,0.9 0.09,1.79 0.14,2.72c1.1,20.94 1.04,41.91 1.04,62.87c0,4.07 0.01,8.14 0.02,12.2c0.13,38.33 -0.95,76.56 -4.08,114.77c-0.13,1.61 -0.13,1.61 -0.26,3.25c-4.08,51.13 -10.76,101.89 -20.86,152.19c-0.17,0.86 -0.34,1.72 -0.52,2.6c-14.22,71.41 -35.72,140.93 -65.48,207.4c-0.65,1.45 -0.65,1.45 -1.31,2.92c-22.64,50.51 -50.37,98.16 -82.69,143.08c-0.55,0.76 -1.1,1.53 -1.67,2.31c-7.88,10.95 -16.12,21.51 -24.8,31.85c-2.14,2.57 -4.24,5.17 -6.34,7.78c-3.57,4.36 -7.29,8.57 -11.09,12.74c-1.83,2.02 -3.63,4.06 -5.41,6.13c-9.93,11.35 -20.44,22.09 -31.11,32.74c-2.35,2.34 -4.69,4.68 -7.02,7.03c-1.52,1.51 -3.03,3.02 -4.55,4.53c-0.68,0.69 -1.37,1.38 -2.08,2.09c-3.94,3.93 -7.99,7.68 -12.21,11.32c-2.22,1.91 -4.38,3.88 -6.53,5.85c-4.33,3.9 -8.77,7.6 -13.3,11.26c-2.51,2.05 -4.97,4.14 -7.43,6.25c-7.55,6.48 -15.39,12.53 -23.33,18.51c-2.03,1.53 -4.05,3.07 -6.07,4.61c-16.82,12.78 -34.23,24.67 -52.06,36c-0.82,0.52 -1.63,1.04 -2.47,1.57c-23.17,14.7 -47.07,28.02 -71.53,40.43c-0.73,0.37 -1.45,0.74 -2.2,1.12c-3.82,1.95 -7.65,3.86 -11.5,5.75c-1.69,0.83 -3.38,1.66 -5.07,2.5c-42.87,21.23 -87.62,38.37 -133.16,52.96c-2.02,0.65 -4.05,1.31 -6.07,1.97c-90.16,29.37 -184.37,46.29 -342.13,61.89c-1.65,0.11 -1.65,0.11 -3.33,0.23c-8.51,0.61 -17.02,1.12 -25.54,1.58c-1.19,0.06 -1.19,0.06 -2.4,0.13c-35.8,1.94 -71.57,2.23 -107.4,2.18c-2.89,0 -5.77,0 -8.65,0c-40.47,-0.02 -80.88,-0.22 -121.27,-3.08c-3.38,-0.24 -6.76,-0.46 -10.14,-0.69c-104.13,-6.91 -207.5,-22.8 -345.14,-61.54c-1.13,-0.36 -1.13,-0.36 -2.28,-0.73c-32.39,-10.35 -64.52,-21.73 -95.72,-35.27c-2,-0.86 -4,-1.71 -5.99,-2.57c-16.24,-7 -32.15,-14.64 -48.01,-22.43c-0.83,-0.41 -1.65,-0.81 -2.5,-1.23c-4.52,-2.21 -9.02,-4.48 -13.5,-6.77c-0.76,-0.39 -1.52,-0.78 -2.31,-1.17c-14.55,-7.42 -28.69,-15.44 -42.69,-23.83c-1.06,-0.63 -2.11,-1.26 -3.2,-1.91c-36.46,-21.92 -71.27,-46.66 -103.8,-74.09c-0.94,-0.79 -0.94,-0.79 -1.9,-1.6c-7.65,-6.45 -15.12,-13.08 -22.45,-19.89c-1.19,-1.09 -2.39,-2.15 -3.6,-3.21c-8.28,-7.29 -16.02,-15.12 -23.8,-22.92c-2.44,-2.45 -4.88,-4.88 -7.33,-7.32c-1.57,-1.58 -3.14,-3.15 -4.72,-4.72c-0.72,-0.72 -1.44,-1.44 -2.18,-2.18c-4,-4.02 -7.83,-8.13 -11.53,-12.43c-2.07,-2.4 -4.22,-4.72 -6.37,-7.04c-4.02,-4.42 -7.85,-8.93 -11.6,-13.58c-1.87,-2.32 -3.78,-4.63 -5.71,-6.92c-8.13,-9.72 -15.78,-19.73 -23.21,-30c-1.44,-1.97 -2.9,-3.93 -4.36,-5.88c-8.57,-11.44 -16.43,-23.36 -24.24,-35.31c-0.55,-0.83 -1.09,-1.66 -1.65,-2.52c-51.13,-78.63 -87.05,-167.04 -124.35,-318.48c-0.17,-0.82 -0.33,-1.63 -0.5,-2.47c-6.04,-30.01 -10.62,-60.17 -14.5,-90.53c-0.16,-1.25 -0.16,-1.25 -0.33,-2.52c-3.62,-28.39 -5.77,-56.93 -7.67,-85.48c-0.07,-0.92 -0.13,-1.84 -0.19,-2.78c-2,-29.41 -2.02,-58.85 -2.06,-88.31c0,-3.04 -0.01,-6.07 -0.02,-9.11c-0.09,-36.83 1.06,-73.58 4.08,-110.3c0.08,-1.05 0.17,-2.09 0.25,-3.16c6.57,-81.08 19.92,-161.74 40.94,-240.34c0.2,-0.78 0.41,-1.55 0.63,-2.35c23.84,-88.79 56.81,-176.8 106.86,-268.9c1.46,-2.67 2.91,-5.36 4.34,-8.05c7.52,-14.07 15.71,-27.67 24.07,-41.26c1.43,-2.33 2.84,-4.68 4.23,-7.04c5.67,-9.58 11.72,-18.86 17.93,-28.09c0.95,-1.42 1.9,-2.84 2.85,-4.26c1.84,-2.75 3.69,-5.5 5.53,-8.24c1.61,-2.4 3.21,-4.8 4.81,-7.2c3.85,-5.81 7.77,-11.54 11.87,-17.17c0.55,-0.76 1.1,-1.51 1.66,-2.29c1.73,-2.38 3.48,-4.77 5.22,-7.15c0.88,-1.21 0.88,-1.21 1.77,-2.44c7.13,-9.77 14.37,-19.43 21.91,-28.89c1.35,-1.71 2.69,-3.43 4.02,-5.15c5.15,-6.64 10.45,-13.12 15.95,-19.47c3.08,-3.56 6.08,-7.15 9.03,-10.8c3.61,-4.44 7.36,-8.7 11.21,-12.93c1.85,-2.04 3.68,-4.11 5.48,-6.2c4.21,-4.82 8.54,-9.53 12.89,-14.23c1.26,-1.37 2.51,-2.76 3.75,-4.15c9.16,-10.2 18.91,-19.81 28.6,-29.49c2.57,-2.56 5.14,-5.13 7.7,-7.7c2,-2 4,-4.01 6.01,-6.01c1.4,-1.4 2.8,-2.8 4.19,-4.2c4.46,-4.44 8.97,-8.76 13.76,-12.85c2.93,-2.53 5.72,-5.21 8.54,-7.87c5.04,-4.72 10.21,-9.19 15.61,-13.51c2.6,-2.13 5.09,-4.35 7.58,-6.61c5.17,-4.71 10.56,-9.11 16,-13.5c1.23,-1.01 2.46,-2.03 3.69,-3.04c8.54,-7.02 17.25,-13.76 26.14,-20.35c2.31,-1.72 4.62,-3.46 6.92,-5.21c17.31,-13.11 35.1,-25.48 53.25,-37.4c0.99,-0.66 0.99,-0.66 2.01,-1.33c20.83,-13.72 42.15,-26.61 63.99,-38.67c0.88,-0.49 1.76,-0.98 2.66,-1.48c24.98,-13.86 50.3,-26.78 76.34,-38.52c1.02,-0.47 2.04,-0.93 3.09,-1.41c78.2,-35.47 161.14,-60.78 361.22,-90.34c0.77,-0.06 1.54,-0.12 2.34,-0.18c24.78,-1.87 49.57,-2.28 74.41,-2.26zm-68.69,513.16c-5.56,8.06 -7.64,18.04 -5.9,27.61c2.46,10.49 7.48,19.33 16.53,25.42c8.2,4.43 15,6.15 24.3,6.16c0.82,0 1.65,0.01 2.5,0.01c2.71,0.02 5.43,0.03 8.15,0.03c1.89,0.01 3.79,0.01 5.69,0.02c3.97,0.01 7.95,0.01 11.93,0.02c5.07,0 10.15,0.03 15.23,0.06c3.92,0.01 7.84,0.02 11.76,0.02c1.87,0 3.74,0.01 5.61,0.03c14.65,0.09 27.52,-0.76 38.87,-11.24c7.35,-7.98 11.62,-17.82 11.27,-28.82c-1.21,-8.88 -4.12,-16.77 -10.31,-23.29c-0.58,-0.62 -1.15,-1.23 -1.74,-1.87c-11.29,-10.93 -24.39,-10.88 -39.14,-10.8c-2.01,0 -4.03,0 -6.05,-0.01c-4.21,-0.01 -8.42,0 -12.63,0.03c-5.36,0.02 -10.73,0.01 -16.09,-0.02c-4.16,-0.02 -8.32,-0.01 -12.48,0c-1.98,0 -3.96,0 -5.93,-0.01c-17.37,-0.08 -29.99,2.59 -41.57,16.65zm-75.19,113.22c-6,8.22 -8.38,17.73 -7.18,27.81c1.86,10.24 7.68,19.67 16,26c5.67,3.07 11.6,6.11 18.14,6.13c1.28,0.01 1.28,0.01 2.58,0.02c1.39,0 1.39,0 2.82,0c1.49,0.01 1.49,0.01 3,0.01c3.34,0.02 6.67,0.02 10.01,0.03c2.38,0.01 4.77,0.02 7.15,0.03c7.17,0.02 14.34,0.03 21.51,0.05c2.03,0 4.05,0 6.08,0.01c12.59,0.02 25.18,0.05 37.77,0.06c2.92,0 5.84,0 8.75,0.01c1.09,0 1.09,0 2.2,0c11.73,0.01 23.46,0.05 35.18,0.09c12.06,0.04 24.11,0.06 36.16,0.07c6.76,0 13.52,0.01 20.28,0.05c6.37,0.03 12.74,0.03 19.1,0.02c2.33,0 4.67,0.01 7,0.03c14.93,0.1 27.21,0.09 38.59,-10.87c8.42,-8.77 12.1,-17.55 11.95,-29.7c-0.98,-10.74 -5.82,-19.13 -13.65,-26.29c-8.56,-6.95 -17.69,-9.06 -28.49,-9.02c-0.98,0 -1.96,-0.01 -2.97,-0.01c-3.26,-0.02 -6.53,-0.01 -9.8,-0.01c-2.34,-0.01 -4.69,-0.02 -7.04,-0.02c-6.36,-0.02 -12.73,-0.03 -19.1,-0.03c-4.65,0 -9.3,0 -13.95,-0.01c-12.51,-0.02 -25.02,-0.02 -37.53,-0.02c-0.71,0 -1.42,0 -2.15,0c-0.71,0 -1.42,0 -2.15,0c-11.51,0 -23.02,-0.02 -34.53,-0.05c-11.83,-0.03 -23.67,-0.04 -35.5,-0.04c-6.64,0 -13.27,-0.01 -19.91,-0.03c-6.25,-0.02 -12.49,-0.02 -18.74,0c-2.28,0 -4.57,0 -6.86,-0.02c-18.24,-0.09 -32.13,0.98 -44.72,15.7zm-611.18,246.81c-0.62,0.45 -1.24,0.9 -1.88,1.37c-13.43,9.84 -26.5,20.19 -38.75,31.47c-2.03,1.85 -4.09,3.66 -6.16,5.46c-4.09,3.57 -8.07,7.23 -12.03,10.95c-0.69,0.65 -1.38,1.3 -2.09,1.97c-7.7,7.26 -15.35,14.57 -22.23,22.63c-1.89,2.18 -3.84,4.3 -5.81,6.42c-4.73,5.1 -9.26,10.29 -13.62,15.71c-1.79,2.22 -3.6,4.43 -5.42,6.63c-19.19,23.19 -35.96,48.35 -51.01,74.39c-0.61,1.03 -0.61,1.03 -1.22,2.09c-42.7,73.45 -66.6,156.15 -73.78,243.91c-0.07,0.88 5.81,-75.1 -0.22,2.67c-6.03,77.77 -15.25,157.85 130.22,400.33c145.47,242.48 0.95,1.15 1.44,1.74c6.45,7.79 13.18,15.28 20.09,22.68c1.43,1.53 2.84,3.08 4.25,4.64c8.24,9.11 16.67,18.07 26.04,26.04c2.31,2.02 4.56,4.1 6.8,6.2c6.26,5.84 12.68,11.36 19.38,16.7c1.12,0.91 2.23,1.82 3.35,2.73c82.56,67.1 183.31,109.51 362.18,126.65c4.62,0 9.23,0.01 13.85,0.01c8.05,0.01 16.11,0.01 24.16,0.01c11.98,-0.02 23.95,-0.01 35.93,0c21.4,0.01 42.81,0.01 64.21,0c18.73,0 37.46,0 56.19,0c1.87,0 1.87,0 3.78,0c5.06,0 10.12,0 15.17,0c35.27,0.01 70.54,0.01 105.81,0c0.99,0 0.99,0 2.01,0c10.77,0 21.54,-0.01 32.31,-0.01c42.71,-0.02 85.41,-0.02 128.12,0c10.77,0 21.53,0.01 32.3,0.01c0.66,0 1.32,0 2,0c35.87,0.01 71.74,0.01 107.61,0c5.04,0 10.09,0 15.14,0c1.25,0 2.49,0 3.77,0c18.71,-0.01 37.42,0 56.13,0.01c21.3,0 42.59,0 63.88,-0.01c11.89,-0.01 23.79,-0.01 35.68,0c7.97,0.01 15.94,0 23.91,-0.01c4.52,-0.01 9.04,-0.01 13.57,0c95.2,0.21 190.36,-22.92 294.94,-81.39c1.53,-0.93 1.53,-0.93 3.09,-1.88c12.67,-7.69 24.98,-15.71 36.84,-24.58c2.04,-1.52 4.09,-3.03 6.13,-4.53c12.67,-9.33 24.98,-19.19 36.57,-29.85c2.03,-1.85 4.08,-3.66 6.16,-5.46c4.08,-3.57 8.07,-7.24 12.02,-10.95c0.69,-0.65 1.38,-1.3 2.1,-1.97c7.68,-7.25 15.3,-14.53 22.15,-22.57c2.04,-2.33 4.13,-4.58 6.24,-6.84c5.84,-6.26 11.36,-12.68 16.7,-19.37c0.92,-1.13 1.84,-2.26 2.76,-3.39c26.27,-32.25 48.97,-67.96 67.15,-105.37c1.19,-2.44 2.4,-4.87 3.61,-7.3c31.87,-64.59 48.8,-135.37 54.48,-206.94c0.07,-0.88 0.14,-1.77 0.22,-2.68c6.03,-77.77 -6.76,-157.83 -39.22,-247.32c-0.65,-1.63 -0.65,-1.63 -1.32,-3.29c-25.78,-63.78 -63.22,-122.34 -109.97,-172.78c-1.82,-1.97 -3.63,-3.94 -5.42,-5.92c-8.27,-9.14 -16.72,-18.13 -26.11,-26.11c-2.32,-2.02 -4.56,-4.11 -6.81,-6.2c-6.25,-5.84 -12.68,-11.36 -19.37,-16.7c-1.12,-0.91 -2.24,-1.82 -3.35,-2.73c-27.3,-22.19 -56.67,-41.63 -87.65,-58.27c-0.83,-0.45 -1.66,-0.91 -2.52,-1.37c-60.09,-32.59 -125.64,-53.07 -193.29,-62.38c-0.73,-0.1 -1.45,-0.2 -2.19,-0.31c-25.47,-3.53 -50.82,-4.24 -76.48,-4.21c-4.6,0.01 -9.21,0 -13.81,0c-8.05,-0.01 -16.09,-0.01 -24.13,-0.01c-11.97,0 -23.93,0 -35.89,-0.01c-22.62,-0.02 -45.23,-0.02 -67.85,-0.01c-17.47,0 -34.94,0 -52.41,-0.01c-2.52,0 -5.03,0 -7.55,0c-3.79,0 -7.58,0 -11.37,0c-35.22,-0.01 -70.44,-0.02 -105.65,-0.01c-0.67,0 -1.33,0 -2.01,0c-7.39,0 -14.78,0 -22.18,0c-0.66,0 -1.33,0 -2.02,0c-4.04,0 -4.04,0 -8.09,0c-42.66,0.01 -85.32,0 -127.97,-0.02c-10.75,0 -21.5,-0.01 -32.25,-0.01c-0.66,0 -1.32,0 -2,0c-35.81,-0.02 -71.63,-0.02 -107.44,-0.02c-5.04,0 -10.08,0 -15.13,0c-1.24,0.01 -2.48,0.01 -3.76,0.01c-18.69,0 -37.37,-0.01 -56.06,-0.02c-21.27,-0.01 -42.54,-0.01 -63.81,0c-11.88,0 -23.77,0 -35.65,-0.01c-7.96,-0.01 -15.92,-0.01 -23.89,0.01c-4.52,0 -9.04,0 -13.56,-0.01c-91.19,-0.22 -179.31,21.13 -338.04,109.39z" fill="#65cde3" id="svg_1"/>
  <path d="m675.68,876.87c1.53,0 3.06,0 4.59,-0.01c4.17,0 8.34,0 12.52,0c4.55,0 9.1,0 13.65,-0.01c9.02,-0.01 18.03,-0.01 27.05,-0.01c10.8,0 21.61,-0.01 32.41,-0.01c26.11,-0.02 52.22,-0.02 78.34,-0.03c12.36,0 24.72,-0.01 37.08,-0.01c42.35,-0.01 84.71,-0.02 127.06,-0.03c2.65,0 5.31,0 7.97,0c2.66,0 5.32,0 7.99,0c4.67,0 9.35,0 14.02,0c1.34,0 2.68,0 4.01,0c42.93,0 85.86,-0.02 128.79,-0.04c46.09,-0.03 92.18,-0.04 138.27,-0.04c4.99,0 9.99,0 14.98,0c1.23,0 2.46,0 3.73,0c19.73,0 39.46,-0.01 59.19,-0.03c19.85,-0.01 39.71,-0.02 59.57,-0.01c11.77,0.01 23.55,0 35.32,-0.01c7.89,-0.01 15.78,-0.01 23.68,0c4.48,0 8.95,0 13.43,-0.01c87.77,-0.23 173.6,20.23 286.67,86.38c0.58,0.41 1.16,0.81 1.76,1.23c12.5,8.72 24.55,18 36.24,27.77c0.51,0.43 1.03,0.86 1.56,1.3c16.79,14.03 33.59,29.05 47.77,45.76c1.97,2.29 4.01,4.52 6.04,6.75c24.56,27.29 44.94,58.12 62.63,90.19c0.73,1.31 0.73,1.31 1.47,2.65c18.79,34.24 32.52,70.63 42.53,108.35c0.27,1.02 0.54,2.03 0.83,3.08c9.67,36.41 14.3,74.3 15.17,111.92c0.02,0.83 0.04,1.65 0.06,2.5c1.93,82.38 -18.29,163.63 -72.06,266.5c-0.89,1.48 -1.79,2.96 -2.68,4.44c-16.07,26.4 -35.51,50.76 -56.32,73.56c-0.82,0.91 -1.64,1.82 -2.48,2.76c-9.35,10.34 -18.99,20.66 -29.66,29.66c-2.22,1.88 -4.34,3.86 -6.49,5.83c-5.58,5.03 -11.45,9.63 -17.4,14.22c-2.06,1.6 -4.1,3.22 -6.13,4.85c-18.82,14.99 -39.06,27.62 -59.84,39.68c-0.91,0.53 -1.82,1.06 -2.75,1.6c-49.36,28.47 -104.65,46.32 -160.69,55.71c-0.68,0.12 -1.35,0.24 -2.05,0.36c-28.68,4.9 -57.72,5.79 -86.74,5.72c-4.55,-0.01 -9.11,0 -13.66,0.01c-7.95,0.01 -15.89,0.01 -23.83,0c-11.81,-0.01 -23.63,-0.01 -35.44,0c-21.11,0.02 -42.22,0.02 -63.33,0.01c-18.47,-0.01 -36.94,-0.01 -55.42,-0.01c-1.22,0 -2.45,0 -3.72,0c-4.99,0 -9.98,0.01 -14.97,0.01c-46.74,0.01 -93.48,0 -140.22,-0.02c-41.45,-0.01 -82.91,-0.01 -124.36,0c-46.66,0.02 -93.32,0.02 -139.97,0.02c-4.99,-0.01 -9.97,-0.01 -14.95,-0.01c-1.22,0 -2.45,0 -3.71,0c-18.46,0 -36.91,0 -55.37,0.01c-21,0.01 -42,0.01 -63,-0.01c-11.72,-0.01 -23.45,-0.01 -35.18,0c-7.86,0.01 -15.72,0 -23.58,-0.01c-4.46,-0.01 -8.92,-0.01 -13.39,0c-28.88,0.07 -57.72,-1.14 -86.23,-6.08c-1.12,-0.18 -1.12,-0.18 -2.26,-0.37c-84.86,-14.3 -164.01,-50.27 -236.18,-108.94c-0.52,-0.43 -1.03,-0.86 -1.56,-1.3c-16.8,-14.06 -33.63,-29.05 -47.81,-45.79c-1.95,-2.29 -3.98,-4.5 -6.01,-6.72c-24.55,-27.28 -44.93,-58.12 -62.62,-90.19c-0.49,-0.87 -0.97,-1.75 -1.47,-2.65c-18.79,-34.24 -32.52,-70.63 -42.53,-108.35c-0.27,-1.01 -0.55,-2.03 -0.83,-3.08c-9.67,-36.4 -14.34,-74.3 -15.17,-111.92c-0.02,-0.84 -0.05,-1.68 -0.07,-2.55c-1.91,-82.37 18.3,-163.59 72.07,-266.45c0.89,-1.48 1.78,-2.96 2.67,-4.44c5.99,-9.83 12.56,-19.24 19.33,-28.56c0.76,-1.05 1.52,-2.09 2.3,-3.17c19.22,-26.01 40.98,-52.15 65.7,-73.11c2.43,-2.09 4.77,-4.28 7.12,-6.47c5.74,-5.23 11.77,-9.99 17.92,-14.73c2.05,-1.59 4.09,-3.21 6.11,-4.83c25.54,-20.34 53.68,-37.12 82.85,-51.69c0.99,-0.5 1.99,-1 3.01,-1.52c15.64,-7.85 31.52,-14.58 47.99,-20.48c1.15,-0.41 2.3,-0.83 3.48,-1.26c49.52,-17.68 102.55,-27.94 155.2,-27.87zm-134.14,131.05c-5.4,7.3 -6.69,13.86 -6.72,22.82c-0.01,0.88 -0.01,1.77 -0.02,2.67c-0.02,2.92 -0.03,5.84 -0.04,8.76c0,0.99 -0.01,1.99 -0.01,3.02c-0.02,5.29 -0.04,10.58 -0.05,15.87c-0.01,5.45 -0.04,10.89 -0.08,16.34c-0.03,4.2 -0.04,8.41 -0.04,12.61c0,2 -0.02,4.01 -0.03,6.02c-0.4,14.52 -0.4,14.52 4.45,27.97c0.9,1.58 0.9,1.58 1.81,3.19c7.43,9.55 16.05,15.14 28.19,16.81c9.34,1.08 19.51,-2.76 27,-8.24c7.76,-6.82 12.35,-15.61 14,-25.76c0.1,-2.71 0.16,-5.39 0.16,-8.1c0,-0.8 0.01,-1.61 0.01,-2.43c0.02,-2.65 0.03,-5.3 0.03,-7.95c0.01,-1.84 0.01,-3.69 0.02,-5.54c0.01,-3.88 0.02,-7.76 0.02,-11.64c0,-4.95 0.03,-9.89 0.06,-14.84c0.02,-3.82 0.02,-7.64 0.02,-11.47c0.01,-1.82 0.01,-3.64 0.03,-5.46c0.1,-14.73 -0.69,-28.21 -11.24,-39.61c-7.97,-7.36 -17.82,-11.62 -28.81,-11.27c-12.32,1.67 -20.9,6.86 -28.76,16.23zm1067.92,-0.98c-5.97,8.43 -7.77,17.42 -7.74,27.62c0,0.8 -0.01,1.61 -0.01,2.43c-0.02,2.63 -0.01,5.25 -0.01,7.88c-0.01,1.84 -0.01,3.69 -0.02,5.53c0,3.86 0,7.71 0,11.56c0.01,4.92 -0.01,9.83 -0.03,14.75c-0.02,3.8 -0.02,7.61 -0.01,11.41c0,1.82 -0.01,3.63 -0.02,5.44c-0.07,14.82 0.94,27.75 11.12,39.45c6.85,6.58 16.69,10.95 26.24,11.01c12.96,-0.84 21.1,-4.42 30.02,-14.02c5.98,-7.63 8.46,-15.62 8.4,-25.19c0.01,-1.33 0.01,-1.33 0.02,-2.68c0.02,-2.89 0.02,-5.79 0.01,-8.68c0.01,-2.03 0.01,-4.06 0.02,-6.09c0.01,-4.24 0,-8.48 -0.01,-12.72c-0.01,-5.42 0.01,-10.83 0.04,-16.25c0.02,-4.18 0.02,-8.37 0.01,-12.55c0,-2 0.01,-3.99 0.02,-5.99c0.33,-14.45 0.33,-14.45 -4.51,-27.85c-0.6,-1.05 -1.2,-2.1 -1.81,-3.19c-7.21,-9.26 -15.52,-14.74 -27.19,-16.81c-13.39,-1.1 -26.12,4.5 -34.54,14.94zm-1228.65,65.25c-6.69,8.31 -9.51,17.8 -8.59,28.37c2.74,17.03 16.11,27.94 27.68,39.58c0.83,0.84 0.83,0.84 1.68,1.69c2.92,2.94 5.84,5.88 8.76,8.81c3,3.01 5.98,6.03 8.96,9.05c2.32,2.34 4.65,4.68 6.99,7.02c1.1,1.11 2.2,2.22 3.3,3.33c10.1,10.26 19.65,18.18 34.72,18.34c10.52,-0.15 18.29,-3.65 26.19,-10.57c7.51,-8.45 12.28,-17.56 11.84,-29.11c-2.13,-16.75 -12.8,-26.47 -24.14,-37.84c-1.25,-1.25 -2.49,-2.5 -3.73,-3.75c-2.6,-2.61 -5.2,-5.21 -7.8,-7.81c-3.32,-3.32 -6.62,-6.64 -9.92,-9.98c-2.56,-2.58 -5.13,-5.15 -7.7,-7.73c-1.22,-1.22 -2.44,-2.44 -3.65,-3.67c-10.37,-10.49 -19.7,-18.76 -35.15,-19.29c-12.08,0.2 -21.23,4.86 -29.44,13.56zm314.27,9.3c-1.23,1.22 -2.46,2.44 -3.68,3.66c-2.57,2.56 -5.12,5.12 -7.68,7.68c-3.25,3.26 -6.52,6.51 -9.79,9.76c-2.54,2.52 -5.07,5.04 -7.59,7.57c-1.2,1.2 -2.4,2.4 -3.61,3.6c-10.6,10.5 -19.6,21.03 -20.17,36.62c0.33,12.17 5.54,21.14 14.19,29.37c7.15,6.02 16.32,8.67 25.59,8.53c16.52,-1.72 26.06,-12.35 37.17,-23.42c1.3,-1.29 2.6,-2.58 3.9,-3.87c2.71,-2.7 5.42,-5.4 8.12,-8.1c3.46,-3.45 6.92,-6.87 10.39,-10.3c2.69,-2.66 5.37,-5.32 8.04,-7.99c1.27,-1.27 2.55,-2.54 3.83,-3.8c6.79,-6.68 12.81,-12.68 16.21,-21.8c0.43,-1.13 0.86,-2.27 1.31,-3.44c2.02,-10.46 0.68,-20.07 -4.94,-29.18c-6.32,-8.82 -14.61,-15.23 -25.37,-17.38c-20.39,-1.7 -32.34,8.87 -45.92,22.49zm751.46,-6.64c-5.85,8.17 -7.44,17.28 -6.54,27.15c3.19,14.5 12.98,23.32 23.07,33.48c0.63,0.63 1.26,1.27 1.91,1.93c3.33,3.36 6.67,6.72 10.02,10.07c3.43,3.44 6.84,6.9 10.25,10.37c2.64,2.68 5.3,5.35 7.96,8.01c1.27,1.27 2.52,2.55 3.78,3.83c9.75,9.94 19.33,18.34 34.01,18.62c11.62,0.03 20.46,-3.86 28.68,-11.97c6.77,-7.41 10.22,-16 10.35,-26.07c-1.03,-17.86 -13.36,-28.92 -25.27,-40.85c-1.18,-1.18 -2.35,-2.36 -3.53,-3.54c-2.45,-2.46 -4.9,-4.92 -7.36,-7.37c-3.12,-3.13 -6.23,-6.27 -9.34,-9.41c-2.42,-2.44 -4.85,-4.87 -7.28,-7.3c-1.15,-1.15 -2.29,-2.31 -3.44,-3.47c-10.37,-10.5 -20.86,-19.21 -36.19,-19.77c-13.09,0.36 -22.83,6.45 -31.08,16.29zm315.32,7.88c-0.92,0.91 -0.92,0.91 -1.86,1.84c-3.24,3.21 -6.47,6.43 -9.7,9.65c-3.32,3.3 -6.65,6.59 -9.98,9.86c-2.59,2.55 -5.16,5.11 -7.73,7.68c-1.22,1.22 -2.44,2.43 -3.68,3.63c-9.1,8.92 -17.84,18.54 -18.2,32.01c-0.11,11.17 1.96,19.81 9.3,28.6c7.51,7.57 17.07,11.87 27.68,12.25c16.74,-0.25 27.68,-11.01 38.76,-22.17c1.27,-1.27 2.54,-2.54 3.82,-3.8c2.65,-2.65 5.29,-5.3 7.93,-7.96c3.37,-3.39 6.75,-6.76 10.14,-10.12c2.62,-2.61 5.24,-5.23 7.85,-7.86c1.24,-1.24 2.49,-2.48 3.74,-3.72c11.43,-11.37 19.82,-21.78 20.07,-38.62c-0.69,-10.01 -5.52,-19.61 -12.87,-26.43c-25.64,-18.87 -46.3,-3.69 -65.27,15.16zm-1449.13,153.9c-6.57,9.03 -7.53,18.45 -6.73,29.37c2.06,10.13 8.05,18.49 16.44,24.44c7,4.59 14.53,6.01 22.76,5.97c0.87,0 1.74,0.01 2.64,0.02c2.85,0.01 5.7,0.01 8.56,0.01c2,0 4,0 6,0.01c4.18,0.01 8.37,0.01 12.55,0c5.34,-0.01 10.68,0.01 16.02,0.04c4.13,0.01 8.26,0.01 12.39,0.01c1.96,0 3.93,0 5.9,0.02c14.19,0.07 25.29,-0.7 36.51,-10.32c7.93,-7.84 11.3,-16.48 11.73,-27.51c-0.24,-10.23 -3.52,-18.54 -10.61,-25.94c-9.23,-8.54 -17.67,-11.89 -30.29,-11.91c-0.83,0 -1.66,-0.01 -2.52,-0.01c-2.75,-0.02 -5.5,-0.03 -8.25,-0.03c-1.92,-0.01 -3.84,-0.01 -5.76,-0.02c-4.02,-0.01 -8.05,-0.02 -12.07,-0.02c-5.14,0 -10.27,-0.03 -15.41,-0.06c-3.97,-0.02 -7.93,-0.02 -11.9,-0.02c-1.89,-0.01 -3.78,-0.01 -5.67,-0.03c-17.6,-0.11 -30.35,1.89 -42.29,15.98zm381.46,-0.5c-5.75,7.85 -8.65,18.2 -7.19,27.87c2.68,11.57 8.33,20.09 18,27c7.21,3.92 13.37,5.15 21.54,5.18c0.86,0.01 1.72,0.01 2.61,0.02c2.85,0.02 5.69,0.03 8.54,0.04c0.98,0 1.95,0.01 2.96,0.01c5.16,0.02 10.33,0.04 15.5,0.05c5.32,0.01 10.63,0.04 15.95,0.08c4.1,0.03 8.21,0.04 12.31,0.04c1.96,0 3.92,0.02 5.88,0.03c14.77,0.14 26.5,-0.74 37.71,-11.45c7.21,-7.74 11.13,-17.39 11,-28c-0.89,-10.13 -5.35,-20.17 -13,-27c-12.47,-9.16 -24.71,-9.46 -39.59,-9.43c-1.9,-0.01 -3.81,-0.01 -5.72,-0.02c-3.99,-0.01 -7.97,0 -11.96,0.01c-5.08,0.01 -10.15,-0.01 -15.23,-0.04c-3.94,-0.02 -7.88,-0.02 -11.81,-0.01c-1.87,0 -3.75,-0.01 -5.62,-0.02c-17.08,-0.1 -30.17,2.11 -41.88,15.64zm688,-2.5c-6.64,8.21 -9.82,18.31 -9,28.79c1.66,10.88 6.8,19.73 15.21,26.74c7.67,5.44 14.88,6.99 24.14,7.02c0.86,0.01 1.72,0.01 2.61,0.02c2.85,0.02 5.69,0.03 8.54,0.04c0.98,0 1.95,0.01 2.96,0.01c5.16,0.02 10.33,0.04 15.5,0.05c5.32,0.01 10.63,0.04 15.95,0.08c4.1,0.03 8.21,0.04 12.31,0.04c1.96,0 3.92,0.02 5.88,0.03c15.46,0.14 27,-1.21 38.61,-12.26c7.13,-7.49 10.52,-17 10.37,-27.27c-1.13,-12.11 -6.37,-20.94 -15.46,-28.73c-11.32,-8.01 -23.38,-7.77 -36.66,-7.68c-1.91,0 -3.82,-0.01 -5.73,-0.01c-3.98,0 -7.97,0.01 -11.95,0.03c-5.08,0.03 -10.16,0.03 -15.24,0.02c-3.94,-0.01 -7.87,0 -11.81,0.01c-1.87,0.01 -3.75,0.01 -5.62,0c-15.49,-0.02 -29.23,1.22 -40.61,13.07zm380.38,1.31c-7.12,9.36 -8.35,19.7 -7.57,31.06c2.01,10.12 8.07,18.5 16.44,24.44c7,4.59 14.53,6.01 22.76,5.97c0.87,0 1.74,0.01 2.64,0.02c2.85,0.01 5.7,0.01 8.56,0.01c2,0 4,0 6,0.01c4.18,0.01 8.37,0.01 12.55,0c5.34,-0.01 10.68,0.01 16.02,0.04c4.13,0.01 8.26,0.01 12.39,0.01c1.96,0 3.93,0 5.9,0.02c14.77,0.08 26.52,-0.83 37.74,-11.52c6.97,-7.35 10.17,-15.92 10.5,-26c-0.41,-12.38 -5.43,-21.41 -14.31,-29.75c-8.01,-6.72 -16.35,-8.4 -26.59,-8.41c-0.83,0 -1.66,-0.01 -2.52,-0.01c-2.75,-0.02 -5.5,-0.03 -8.25,-0.03c-1.92,-0.01 -3.84,-0.01 -5.76,-0.02c-4.02,-0.01 -8.05,-0.02 -12.07,-0.02c-5.14,0 -10.27,-0.03 -15.41,-0.06c-3.97,-0.02 -7.93,-0.02 -11.9,-0.02c-1.89,-0.01 -3.78,-0.01 -5.67,-0.03c-16.7,-0.1 -29.34,1.7 -41.45,14.29zm-1325.16,105.04c-0.52,0.48 -1.04,0.97 -1.58,1.46c-5.59,5.22 -11.05,10.58 -16.48,15.97c-0.52,0.51 -1.04,1.03 -1.57,1.56c-2.75,2.73 -5.5,5.46 -8.24,8.19c-2.8,2.79 -5.61,5.57 -8.42,8.34c-2.2,2.17 -4.38,4.35 -6.57,6.53c-1.03,1.03 -2.06,2.05 -3.1,3.07c-11.22,11.02 -19.23,21.7 -19.45,37.9c0.84,10.27 5.18,19.15 12.68,26.18c10.3,8.1 20.53,10.17 33.32,8.82c18.21,-4.33 33.02,-24.69 45.92,-37.52c2.55,-2.53 5.11,-5.05 7.68,-7.57c3.13,-3.07 6.24,-6.15 9.35,-9.25c1.17,-1.17 2.35,-2.32 3.53,-3.48c9.75,-9.52 17.68,-19.35 17.89,-33.62c0.03,-11.49 -3.79,-20.09 -11.87,-28.36c-16.35,-14.34 -37.68,-12.55 -53.09,1.78zm1056.1,11.01c-1.27,1.28 -2.55,2.55 -3.82,3.82c-2.66,2.66 -5.31,5.32 -7.95,7.98c-3.38,3.41 -6.77,6.8 -10.16,10.18c-2.63,2.62 -5.25,5.25 -7.87,7.88c-1.25,1.25 -2.5,2.5 -3.75,3.75c-10.43,10.42 -18.79,19.85 -19.4,35.28c0.33,10.64 4.03,19.5 11.44,27.12c7.36,6.84 16.85,11.14 27,11c18.96,-1.56 30.25,-15.09 42.96,-27.75c0.54,-0.55 1.09,-1.09 1.65,-1.65c2.89,-2.87 5.78,-5.75 8.66,-8.63c2.95,-2.95 5.92,-5.89 8.89,-8.83c2.3,-2.28 4.6,-4.58 6.89,-6.87c1.09,-1.09 2.19,-2.17 3.28,-3.25c10.13,-10.01 17.61,-19.25 18.04,-34.02c-0.36,-11.22 -4.37,-19.68 -12.1,-27.82c-7.64,-6.96 -16.1,-9.42 -26.21,-10.49c-16.39,1.67 -26.48,11.12 -37.55,22.3zm225.06,-7.98c-7.54,9.57 -8.66,20.23 -7.57,31.99c2.97,13.01 13.8,22.15 22.85,31.26c0.93,0.94 0.93,0.94 1.88,1.89c3.27,3.31 6.56,6.61 9.84,9.91c3.37,3.38 6.72,6.77 10.07,10.18c2.6,2.63 5.21,5.26 7.83,7.88c1.24,1.24 2.47,2.49 3.7,3.75c9.73,9.92 19.41,18.12 34.02,18.38c10.75,-0.14 19.22,-3.98 27.01,-11.32c8.28,-8.77 11.18,-17.57 11.08,-29.47c-1.45,-17.68 -16.56,-29.89 -28.27,-41.69c-0.51,-0.51 -1.02,-1.02 -1.54,-1.55c-2.68,-2.7 -5.37,-5.4 -8.05,-8.1c-2.75,-2.75 -5.48,-5.52 -8.21,-8.29c-2.13,-2.15 -4.27,-4.3 -6.41,-6.45c-1.01,-1.01 -2.02,-2.03 -3.02,-3.05c-7.64,-7.77 -16.09,-15.94 -27.09,-18.27c-0.95,-0.21 -1.89,-0.43 -2.87,-0.65c-13.91,-2.02 -25.78,3.7 -35.25,13.6zm-1066.38,-1.26c-7.77,9.57 -10,19.13 -9.19,31.25c2.26,14.08 13.23,23.68 22.87,33.27c1.25,1.25 2.5,2.5 3.75,3.76c2.6,2.6 5.21,5.21 7.82,7.8c3.33,3.32 6.65,6.65 9.97,9.98c2.57,2.59 5.15,5.16 7.73,7.73c1.22,1.23 2.45,2.45 3.67,3.68c10.37,10.41 19.77,18.62 35.13,19.22c10.6,-0.31 20.64,-4.85 28.03,-12.47c6.87,-8.28 10.7,-17.82 9.81,-28.62c-2.57,-17.6 -15.73,-28.46 -27.65,-40.49c-0.83,-0.83 -0.83,-0.83 -1.67,-1.69c-2.91,-2.94 -5.83,-5.88 -8.75,-8.81c-2.4,-2.41 -4.78,-4.82 -7.16,-7.24c-2.9,-2.95 -5.82,-5.89 -8.74,-8.83c-1.11,-1.1 -2.2,-2.21 -3.29,-3.33c-9.74,-9.94 -19.56,-17.42 -33.96,-18.07c-10.89,0.47 -20.93,4.92 -28.37,12.86zm-110.19,46.25c-4.8,7.87 -7.15,14.43 -7.18,23.61c-0.01,0.88 -0.01,1.76 -0.02,2.67c-0.02,2.92 -0.03,5.83 -0.04,8.75c0,1 -0.01,2 -0.01,3.03c-0.02,5.29 -0.04,10.58 -0.05,15.87c-0.01,5.45 -0.04,10.89 -0.08,16.34c-0.03,4.2 -0.04,8.4 -0.04,12.6c0,2.01 -0.02,4.02 -0.03,6.02c-0.12,13.74 0.25,25.08 9.46,36.11c7.56,7.62 17.34,12.01 28.05,12.31c10.55,-0.14 19.41,-3.98 26.94,-11.31c8.07,-8.84 11.13,-18.35 11.18,-30.16c0,-0.81 0.01,-1.62 0.02,-2.45c0.02,-2.67 0.03,-5.34 0.04,-8.01c0,-0.92 0,-1.84 0.01,-2.78c0.02,-4.86 0.03,-9.72 0.04,-14.58c0.01,-4.99 0.05,-9.97 0.09,-14.96c0.03,-3.86 0.03,-7.72 0.04,-11.58c0,-1.84 0.01,-3.68 0.03,-5.52c0.13,-13.89 -0.27,-27.31 -10.45,-37.96c-8.08,-8.14 -16,-12.2 -27.5,-12.37c-12.49,-0.04 -22.39,4.73 -30.5,14.37zm1068.75,-0.75c-7.06,8.21 -8.9,17.39 -8.91,27.96c-0.01,0.82 -0.01,1.63 -0.02,2.47c-0.01,2.68 -0.02,5.37 -0.02,8.05c-0.01,1.88 -0.02,3.75 -0.02,5.63c-0.01,3.93 -0.02,7.86 -0.02,11.79c-0.01,5.01 -0.03,10.03 -0.06,15.04c-0.02,3.87 -0.02,7.75 -0.03,11.62c0,1.85 -0.01,3.7 -0.02,5.55c-0.1,14.58 0.81,27.39 11.24,38.68c8.34,7.69 17.9,11.46 29.27,11.21c10.17,-0.89 18.26,-5.66 25.84,-12.25c1.99,-2.53 1.99,-2.53 3.69,-5.31c0.58,-0.9 1.16,-1.81 1.76,-2.74c3.28,-6.24 3.85,-12.1 3.85,-19c0.02,-1.32 0.02,-1.32 0.03,-2.66c0.02,-2.89 0.03,-5.78 0.04,-8.68c0.01,-2.02 0.02,-4.04 0.03,-6.07c0.01,-4.24 0.02,-8.48 0.02,-12.71c0.01,-5.41 0.05,-10.81 0.09,-16.22c0.03,-4.18 0.04,-8.36 0.04,-12.54c0.01,-1.99 0.02,-3.98 0.04,-5.98c0.14,-15.1 -1.03,-26.46 -11.98,-37.89c-17.58,-14.8 -39.74,-11.77 -54.86,4.05zm-724.08,190.7c-6.12,7.51 -9.2,17.07 -8.92,26.7c1.55,14.75 10.43,24.22 21.25,33.35c0.78,0.67 1.56,1.33 2.37,2.02c32.33,26.63 69.7,47.33 109.63,59.98c1.38,0.44 1.38,0.44 2.79,0.89c75.09,23.65 156.4,18.05 227.21,-16.89c1.4,-0.67 2.8,-1.35 4.2,-2.02c3.97,-1.92 7.89,-3.93 11.8,-5.98c0.96,-0.5 0.96,-0.5 1.93,-1.01c20.4,-10.8 39.16,-24.62 56.58,-39.71c1.37,-1.17 2.75,-2.32 4.13,-3.47c8.53,-7.22 13.47,-15.26 14.64,-26.54c0.41,-12.39 -4.28,-22.06 -12.28,-31.27c-2.53,-1.99 -2.53,-1.99 -5.31,-3.69c-0.91,-0.58 -1.81,-1.16 -2.74,-1.76c-8.63,-4.54 -18.61,-4.88 -28.05,-2.9c-7.93,2.61 -13.5,7.37 -19.68,12.79c-37.79,32.92 -85.68,53.23 -135.22,59.56c-0.67,0.09 -1.33,0.19 -2.01,0.28c-61.47,7.95 -125.39,-15.18 -173.66,-52.33c-3.5,-2.77 -6.93,-5.6 -10.3,-8.53c-10.66,-9.24 -19.06,-12.96 -33.19,-12.7c-10.03,0.74 -18.29,6.12 -25.17,13.23z" fill="#fef7f5" id="svg_2"/>
  <path d="m1983.13,-0.5c0.67,0 1.34,0 2.02,0.01c18.34,0.1 34.56,4.2 50.86,12.49c0.59,0.3 1.19,0.59 1.81,0.9c26.25,13.24 45.45,37.56 54.88,65.13c9.3,29.42 6.89,61.1 -6.87,88.67c-4.2,8.06 -9.09,15.24 -14.82,22.3c-0.47,0.6 -0.93,1.2 -1.4,1.82c-3.37,4.3 -7.41,7.73 -11.6,11.18c-0.96,0.79 -1.91,1.58 -2.88,2.39c-8.53,6.9 -21.77,17.61 -33.12,17.61c0,63.69 0,127.38 0,193c-0.66,0 -1.33,0 -2,0c-1.57,-1.84 -3.01,-3.69 -4.44,-5.62c-0.91,-1.21 -1.81,-2.41 -2.72,-3.61c-0.47,-0.62 -0.94,-1.25 -1.42,-1.89c-6.67,-8.82 -13.62,-17.38 -20.8,-25.79c-2.46,-2.89 -4.86,-5.83 -7.25,-8.78c-3.57,-4.39 -7.3,-8.59 -11.12,-12.77c-2.38,-2.68 -4.63,-5.44 -6.88,-8.23c-3.05,-3.77 -6.19,-7.25 -9.68,-10.62c-2.51,-2.51 -4.81,-5.2 -7.12,-7.89c-1.5,-1.8 -1.5,-1.8 -3.15,-3.15c-1.81,-2.1 -1.8,-3.17 -1.79,-5.92c0,-0.87 0,-1.74 -0.01,-2.64c0.01,-0.95 0.02,-1.9 0.03,-2.89c0,-1.5 0,-1.5 0,-3.04c0.01,-3.33 0.03,-6.66 0.05,-9.98c0.01,-2.31 0.01,-4.61 0.01,-6.92c0.02,-6.07 0.05,-12.14 0.08,-18.21c0.03,-6.2 0.04,-12.39 0.06,-18.58c0.03,-12.16 0.08,-24.31 0.14,-36.47c-0.74,-0.13 -1.49,-0.26 -2.27,-0.4c-3.75,-0.83 -7.01,-2.5 -10.41,-4.22c-0.72,-0.37 -1.43,-0.73 -2.16,-1.1c-5.77,-2.98 -11.06,-6.25 -16.16,-10.28c-0.52,-0.41 -1.05,-0.82 -1.6,-1.25c-13.68,-10.78 -23.4,-23.34 -31.4,-38.75c-0.47,-0.9 -0.94,-1.8 -1.42,-2.73c-12.36,-25.32 -14.48,-56.48 -5.74,-83.26c11.11,-32.28 32.32,-56.02 63.01,-71.02c14.92,-6.89 30.96,-9.57 47.28,-9.49z" fill="#f26835" id="svg_3" transform="matrix(1 0 0 1 0 0)"/>
  <path d="m282,12c0.6,0.3 1.2,0.59 1.81,0.9c26.64,13.43 46.01,38.35 55.44,66.35c8.84,31.18 5.71,63.21 -9.71,91.75c-3.63,6.45 -7.87,12.26 -12.54,18c-0.46,0.6 -0.92,1.2 -1.39,1.82c-3.37,4.3 -7.41,7.73 -11.61,11.18c-0.95,0.79 -1.9,1.58 -2.88,2.39c-8.53,6.9 -21.76,17.61 -33.12,17.61c0.03,1.91 0.03,1.91 0.06,3.85c0.18,11.99 0.32,23.98 0.41,35.97c0.04,6.17 0.11,12.33 0.21,18.49c0.1,5.96 0.15,11.91 0.17,17.86c0.02,2.27 0.05,4.54 0.1,6.8c0.37,17.78 0.37,17.78 -2.89,23.34c-2.24,2.25 -4.44,3.93 -7.06,5.69c-1.21,1.28 -2.38,2.59 -3.5,3.94c-2.58,3 -5.21,5.95 -7.88,8.87c-3.94,4.37 -7.66,8.89 -11.37,13.47c-2.2,2.66 -4.48,5.23 -6.81,7.78c-3.55,3.9 -6.89,7.91 -10.15,12.05c-2.3,2.9 -4.64,5.77 -6.98,8.64c-10.58,12.8 -10.58,12.8 -20.31,26.25c-0.66,0 -1.32,0 -2,0c0,-63.69 0,-127.38 0,-193c-1.65,-0.33 -3.3,-0.66 -5,-1c-2.61,-1.15 -5.15,-2.33 -7.69,-3.62c-0.71,-0.37 -1.42,-0.73 -2.16,-1.1c-5.76,-2.98 -11.05,-6.25 -16.15,-10.28c-0.53,-0.41 -1.06,-0.82 -1.6,-1.25c-13.68,-10.78 -23.4,-23.34 -31.4,-38.75c-0.47,-0.9 -0.94,-1.8 -1.43,-2.73c-12.76,-26.15 -14.08,-57.66 -5.27,-85.24c10.9,-31.45 32.75,-54.31 62.26,-68.78c31.78,-14.47 69.54,-12.97 100.44,2.75z" fill="#f26835" id="svg_4" transform="matrix(1 0 0 1 0 0)"/>
 </g>
</svg>